<?xml version="1.0" encoding="UTF-8"?>
<svg id="_レイヤー_2" data-name="レイヤー_2" xmlns="http://www.w3.org/2000/svg" viewBox="0 0 143.18 96.83">
  <defs>
    <style>
      .cls-1 {
        fill: #4e4d4d;
      }
    </style>
  </defs>
  <g id="_レイヤー_1-2" data-name="レイヤー_1">
    <g>
      <path class="cls-1" d="M56.5,23.61c-2.07-6.48-4.52-13.22-9.48-18.09C42.8,1.38,36.33-1.07,30.46.46s-9.17,7.19-10.99,12.78c-.95,2.93-1.66,5.93-2.73,8.82-1.26,3.39-3.08,6.54-5,9.59-3.85,6.12-8.19,11.99-10.39,18.96-2,6.36-2.06,13.53,1.79,19.23,3.31,4.9,8.6,7.87,14.06,9.79,6.5,2.29,13.47,3.25,20.27,4.17,16.13,2.19,32.41,2.81,48.67,2.89,8.17.04,16.34-.05,24.51-.15,6.61-.09,13.56-.34,19.58-3.39,11.6-5.89,13.09-19.99,12.95-31.58-.08-6.78-.09-14.08-4.54-19.62-2.07-2.57-4.83-4.56-6.68-7.31s-2.43-5.86-3.17-8.94-1.53-6.03-3.36-8.52c-1.7-2.32-4.08-3.95-6.82-4.81-5.76-1.79-12.13-.2-17.23,2.73-6.18,3.55-11.21,8.8-17.51,12.17s-13.59,4.92-20.73,5.56c-3.5.32-7.02.44-10.54.47-1.93.02-1.93,3.02,0,3,6.86-.07,13.77-.47,20.48-1.98s12.58-4.16,18-8.12,10.12-8.58,16.33-10.57c4.89-1.57,11.11-1.64,14.86,2.4,1.97,2.12,2.77,4.99,3.45,7.73.72,2.91,1.31,5.87,2.62,8.59,1.38,2.86,3.7,5.02,5.91,7.23,2.33,2.34,4.1,4.8,4.93,8.04s.88,6.51.96,9.78c.07,2.92.09,5.84-.08,8.76-.32,5.56-1.3,11.37-4.36,16.13-3.3,5.14-8.77,7.63-14.63,8.58-6.88,1.12-14.09.72-21.03.78-15.41.13-30.85.06-46.22-1.12-7.62-.59-15.21-1.45-22.75-2.7-5.82-.97-11.78-2.12-17.1-4.78-4.92-2.46-9.11-6.28-10.49-11.78-1.65-6.57.86-13.56,4.05-19.26s7.58-11.29,10.53-17.42c1.35-2.81,2.31-5.74,3.18-8.72.79-2.72,1.54-5.51,2.81-8.05,1.17-2.34,2.8-4.42,5.15-5.66s5.41-1.39,8.07-.75c6.26,1.52,10.36,6.54,13.02,12.13,1.36,2.86,2.37,5.88,3.34,8.89.59,1.83,3.48,1.05,2.89-.8h0Z"/>
      <path class="cls-1" d="M41.27,39.3v8.09c0,.78.69,1.54,1.5,1.5s1.5-.66,1.5-1.5v-8.09c0-.78-.69-1.54-1.5-1.5s-1.5.66-1.5,1.5h0Z"/>
      <path class="cls-1" d="M82.39,40.38l-.5,5.94c-.07.78.74,1.53,1.5,1.5.87-.04,1.43-.66,1.5-1.5l.5-5.94c.07-.78-.74-1.53-1.5-1.5-.87.04-1.43.66-1.5,1.5h0Z"/>
      <path class="cls-1" d="M67.66,50.27c-3.85-1.02-7.71-.95-11.66-.77-3.67.17-7.37,1.24-10.27,3.57-5.52,4.41-6.37,13.91.5,17.54,3.51,1.86,7.86,2.06,11.74,2.24,4.6.21,9.21-.08,13.76-.79,4.08-.64,8.66-1.41,12.23-3.61,3.07-1.89,5.42-5.33,4.8-9.06s-4.08-5.81-7.45-6.82c-1.98-.59-4.04-.85-6.08-1.16-2.59-.39-5.19-.77-7.78-1.16-1.89-.28-2.7,2.61-.8,2.89,3.73.56,7.5,1.01,11.21,1.7,2.41.45,5.31,1.1,6.98,3.04,2,2.32.74,5.5-1.37,7.25-2.64,2.19-6.45,2.87-9.72,3.53-3.94.79-7.95,1.2-11.96,1.25-3.59.04-7.32-.07-10.85-.82-2.85-.61-5.61-1.93-6.43-4.96-.72-2.65.1-5.66,1.95-7.67,2.32-2.52,5.78-3.72,9.14-3.94,3.77-.24,7.56-.33,11.24.64,1.87.49,2.67-2.4.8-2.89h0Z"/>
      <path class="cls-1" d="M58.01,60.5v3.78c0,.78.69,1.54,1.5,1.5s1.5-.66,1.5-1.5v-3.78c0-.78-.69-1.54-1.5-1.5s-1.5.66-1.5,1.5h0Z"/>
      <path class="cls-1" d="M66.1,62.12v3.24c0,.38.17.79.44,1.06s.69.46,1.06.44.79-.14,1.06-.44.44-.65.44-1.06v-3.24c0-.38-.17-.79-.44-1.06s-.69-.46-1.06-.44-.79.14-1.06.44-.44.65-.44,1.06h0Z"/>
    </g>
    <g>
      <g>
        <path class="cls-1" d="M28.8,96.7l-.19-.1s-.04-.07-.04-.1c0-.03,0-.07,0-.12.02-.05.05-.09.09-.12.03-.03.07-.06.12-.09.23-.02.44-.09.65-.2.2-.11.38-.26.54-.46.18-.26.34-.54.48-.82s.24-.59.29-.91h-.03c-.06.16-.15.32-.27.46-.12.15-.26.27-.42.36-.1.03-.21.06-.32.08-.11.02-.22.03-.34.03-.25-.01-.48-.08-.69-.19-.21-.12-.4-.26-.57-.45-.14-.13-.24-.27-.3-.42-.06-.16-.08-.32-.06-.51.02-.16.08-.31.17-.44s.2-.26.33-.39c.23-.23.49-.39.77-.47.29-.09.6-.11.95-.08.1.01.2.04.28.08.09.04.17.08.27.11v-.16c-.01-.18-.03-.37-.06-.55s-.06-.37-.09-.55h-3.33l-.62.03s-.09-.02-.15-.03c-.05-.01-.1-.03-.15-.07-.02-.04-.04-.08-.06-.12-.02-.05-.02-.1,0-.14.01-.03.03-.07.07-.1.03-.04.07-.06.1-.07h.14c.07.02.15.03.23.03h.25l.19-.03h3.16v-.05c-.06-.17-.13-.34-.21-.51-.09-.17-.16-.34-.22-.51l.07-.12s.07-.04.12-.06.09-.02.14,0c.06.02.11.06.15.11.04.05.08.1.11.15l.4.98.02.02h.9c.19.03.38.05.58.06.2,0,.37.05.53.13.02.03.04.07.04.11,0,.04,0,.08,0,.12-.01.03-.03.07-.07.1-.03.03-.07.06-.1.07h-.29l-.7-.09h-.79v.05c.03.17.07.34.09.52s.05.35.06.53v.69c.07.09.12.19.15.3.03.11.05.22.08.34v.71c-.07.42-.2.83-.4,1.23-.2.39-.46.75-.78,1.07-.18.16-.38.29-.58.38s-.42.16-.65.19ZM29.85,94.11c.13-.09.22-.2.28-.34s.13-.26.2-.39c.03-.11.07-.23.11-.35.04-.12.06-.25.06-.39-.15-.18-.32-.3-.52-.34-.2-.05-.42-.06-.65-.04-.17.04-.33.1-.47.19s-.28.21-.4.34c-.07.09-.13.19-.17.28s-.06.2-.05.32c.02.07.06.13.11.19.05.06.1.11.15.17.15.16.31.28.49.35.18.08.38.11.59.09l.28-.1Z"/>
        <path class="cls-1" d="M28.77,96.83l-.27-.16s-.05-.1-.06-.15c0-.04-.01-.08-.01-.14v-.06c.04-.06.08-.11.12-.15.05-.04.1-.08.15-.11h.04c.21-.03.41-.09.6-.2.19-.1.36-.24.51-.43.17-.25.33-.52.47-.8.03-.06.05-.11.08-.17-.1.1-.21.18-.33.25-.14.05-.25.08-.36.09-.11.02-.23.03-.35.03-.28-.01-.53-.08-.75-.21-.22-.12-.42-.28-.6-.47-.14-.13-.26-.29-.33-.46-.07-.17-.09-.37-.07-.57.03-.18.09-.35.19-.49.09-.13.21-.27.34-.4.24-.24.52-.41.83-.51.3-.09.64-.12,1-.08.12.01.23.04.32.09.03.01.06.03.09.04-.01-.16-.03-.33-.06-.5-.02-.15-.05-.3-.08-.45h-3.23l-.63.04-.16-.04c-.07-.02-.13-.05-.19-.09l-.03-.03s-.05-.09-.07-.15c-.03-.07-.03-.14-.01-.21.02-.06.05-.11.1-.16.04-.05.1-.08.15-.1h.04s.18,0,.18,0c.05.02.12.03.19.03h.25l.17-.03h3.02c-.05-.13-.1-.25-.17-.38-.09-.17-.16-.35-.22-.53l-.02-.05.14-.21s.09-.05.15-.07c.07-.03.14-.03.21-.01.09.04.16.09.21.16l.13.18.37.92h.82c.21.04.39.05.58.06.21,0,.41.05.59.14l.05.04s.05.1.06.16c0,.04,0,.09,0,.14v.04c-.02.05-.06.11-.11.15-.05.05-.1.08-.15.1h-.04s-.29,0-.29,0l-.71-.09h-.64c.03.13.05.28.08.42.03.17.05.36.06.55v.66c.07.1.11.2.14.31.03.11.06.22.08.34v.73c-.07.46-.21.88-.42,1.28-.21.4-.48.77-.81,1.1-.2.17-.41.31-.62.4-.22.1-.45.16-.69.2h-.04ZM28.7,96.51l.12.07c.2-.03.4-.09.58-.17.19-.09.38-.21.55-.36.3-.3.56-.65.75-1.03.19-.38.33-.78.39-1.19v-.69c-.02-.09-.05-.2-.08-.3-.02-.09-.06-.18-.12-.26l-.02-.03v-.73c-.01-.17-.03-.35-.06-.51-.03-.17-.06-.34-.09-.51v-.2s.91,0,.91,0l.71.09h.25s.02-.02.04-.03c.02-.02.03-.03.03-.04,0-.03,0-.06,0-.08,0,0,0-.02,0-.03-.13-.06-.29-.09-.45-.1-.2,0-.4-.03-.59-.06h-.93s-.08-.09-.08-.09l-.39-.96-.1-.13s-.06-.06-.1-.07c0,0-.02,0-.05.01-.03.01-.05.02-.07.03l-.02.04c.05.15.12.3.19.44.09.17.16.35.22.53v.04s0,.18,0,.18h-3.28l-.17.03h-.27c-.09,0-.18,0-.25-.03h-.09s-.03.02-.04.03c-.03.03-.04.05-.04.05,0,.01,0,.04,0,.06.01.03.02.06.04.08.03.02.05.03.08.03l.13.03.6-.03h3.44l.02.1c.03.19.07.37.1.55.03.19.05.38.06.56v.34l-.17-.06c-.1-.04-.19-.07-.28-.12-.07-.03-.15-.06-.24-.07-.32-.03-.63,0-.9.07-.27.08-.51.23-.72.44-.12.12-.23.25-.31.37-.08.12-.13.24-.15.38-.02.16,0,.31.05.44.06.14.15.26.27.38.17.18.35.32.54.43.19.1.4.16.63.17.1,0,.21,0,.31-.02.1-.02.2-.04.3-.07.12-.07.25-.18.36-.32.11-.14.19-.28.25-.43l.03-.08h.27l-.03.15c-.06.33-.16.65-.3.94-.14.29-.3.57-.49.84-.18.21-.37.38-.59.5-.21.11-.43.18-.67.21-.03.02-.05.03-.07.05-.02.02-.03.04-.05.06,0,.02,0,.05,0,.07,0,.01,0,.02.01.03ZM29.48,94.34c-.2,0-.39-.04-.56-.11-.19-.08-.37-.21-.53-.38-.05-.06-.1-.12-.15-.17-.06-.07-.11-.15-.14-.23-.02-.17,0-.29.06-.41.05-.1.11-.21.19-.31.14-.16.29-.28.44-.38.15-.1.33-.17.52-.21.26-.03.49-.01.7.04.23.05.43.18.59.39l.03.04v.04c0,.15-.02.29-.07.43-.04.12-.08.24-.11.35-.08.15-.14.28-.21.41-.07.15-.18.28-.32.38l-.03.02-.31.11s-.06,0-.09,0ZM29.55,92.38c-.07,0-.14,0-.21,0-.15.03-.29.09-.42.17-.13.08-.26.19-.38.32-.06.08-.11.16-.15.25-.04.08-.05.16-.04.25.01.02.04.07.08.12.05.06.1.12.15.18.13.14.28.25.44.32.15.06.33.1.52.09l.24-.09c.1-.08.18-.17.23-.28.06-.13.13-.26.2-.39.02-.09.06-.21.1-.33.03-.09.05-.2.05-.3-.12-.14-.26-.23-.43-.27-.13-.03-.26-.04-.4-.04Z"/>
      </g>
      <g>
        <path class="cls-1" d="M35.88,96.51s-.09-.03-.12-.05c-.03-.02-.07-.05-.1-.09-.22-.79-.37-1.6-.46-2.42-.09-.82-.13-1.65-.13-2.48.02-.37.04-.74.05-1.12.01-.38.09-.74.24-1.07.03-.03.07-.06.12-.08.05-.02.1-.02.15,0,.03.01.07.03.1.07.03.03.06.07.07.1v.14c-.14.4-.21.83-.22,1.29s-.01.91-.03,1.36c.03.7.09,1.4.17,2.1.08.7.22,1.39.42,2.05-.03.05-.06.08-.09.11-.03.03-.07.05-.11.08l-.09.02ZM38.4,96.17c-.17-.01-.33-.06-.48-.15-.15-.09-.29-.2-.41-.33-.17-.2-.3-.41-.4-.65s-.14-.5-.14-.77c.02-.14.07-.26.14-.38.07-.11.16-.22.28-.33.29-.21.6-.35.94-.43.34-.08.7-.11,1.08-.09l.33.05.02-.14v-1.12l-.05-.43-.81-.1h-1.22l-.74.09-.19-.1s-.04-.07-.04-.1c0-.04,0-.08,0-.12.01-.03.03-.07.07-.1.03-.04.07-.06.1-.07l.81-.09h1.22c.11.02.23.04.35.05s.24.02.37.03v-.1c-.06-.26-.11-.51-.17-.77-.06-.25-.13-.5-.21-.74l.1-.19s.07-.04.1-.04c.03,0,.07,0,.12,0,.06.02.1.06.13.1s.05.09.08.14c.08.28.15.55.21.83.06.28.11.56.15.85.22.02.44.04.67.05.23.01.44.06.63.14.02.04.04.07.04.1,0,.04,0,.08,0,.12-.01.03-.03.07-.07.1-.03.04-.07.06-.1.07h-.22l-.87-.09v.14l.03.24v1.12l-.05.31c.33.14.64.31.93.51.29.2.58.42.85.65.02.03.04.07.06.12.02.05.02.09,0,.14-.01.04-.03.07-.07.1-.03.03-.07.06-.1.07h-.16c-.25-.22-.51-.42-.77-.59-.26-.18-.54-.34-.82-.47-.07.41-.19.8-.36,1.17-.17.37-.42.7-.74,1-.09.07-.19.12-.29.15-.1.03-.21.05-.33.06ZM38.71,95.57c.29-.26.5-.57.64-.91.14-.34.24-.69.29-1.05-.13-.05-.27-.07-.42-.07h-.46c-.22.03-.42.09-.62.17-.19.08-.38.2-.55.34-.05.07-.08.14-.1.21-.02.08-.03.16-.02.25.05.17.11.34.19.5.08.16.19.31.33.44.08.05.16.09.23.14s.16.07.27.07l.22-.1ZM40.91,90.84s-.08-.04-.11-.08-.05-.08-.08-.11c-.06-.28-.11-.56-.15-.84-.04-.28-.08-.56-.12-.83.01-.03.04-.07.07-.1.04-.04.07-.06.11-.07h.14s.08.05.11.08c.03.03.05.07.08.11.03.28.07.55.12.83l.14.84s-.03.07-.07.1c-.03.03-.07.06-.1.07h-.14ZM41.99,90.72s-.07-.03-.1-.07c-.03-.03-.06-.07-.07-.1l-.02-.08v-.96l-.03-.6.07-.12s.07-.04.12-.06c.05-.02.09-.02.14,0,.03.01.07.03.1.07.03.03.06.07.07.1l.03.62v1.04s-.03.07-.07.1c-.03.04-.07.06-.1.07h-.14Z"/>
        <path class="cls-1" d="M35.88,96.64h-.03c-.06-.02-.11-.04-.16-.08-.04-.03-.08-.06-.12-.1l-.02-.02v-.03c-.23-.8-.38-1.62-.47-2.44-.09-.82-.13-1.66-.13-2.49.02-.37.04-.75.05-1.13.01-.4.1-.77.25-1.12l.03-.04s.1-.08.16-.11c.07-.03.15-.03.22-.01.07.02.12.05.17.1.05.05.08.1.1.15v.04s0,.18,0,.18c-.13.39-.2.81-.21,1.25,0,.46-.01.91-.03,1.36.03.69.09,1.39.17,2.09.08.69.22,1.38.42,2.03l.02.05-.03.05c-.03.05-.07.1-.1.13-.04.04-.09.07-.15.1h-.03s-.11.03-.11.03ZM35.77,96.31s.04.04.06.05c.02.01.03.02.06.03h.04s.05-.04.07-.05c.01-.01.02-.03.04-.04-.19-.65-.33-1.33-.41-2.02-.08-.7-.14-1.41-.17-2.11.01-.46.02-.91.03-1.36,0-.46.08-.9.22-1.31v-.09s-.02-.02-.03-.04c-.03-.03-.04-.04-.05-.04-.02,0-.05,0-.08,0-.02,0-.04.02-.06.04-.14.31-.21.65-.22,1-.01.38-.03.76-.05,1.13,0,.81.04,1.64.13,2.46.08.8.23,1.6.44,2.37ZM38.41,96.29h-.01c-.19-.01-.37-.07-.54-.16-.16-.09-.31-.21-.44-.36-.18-.21-.32-.44-.42-.69-.1-.25-.15-.53-.15-.82.03-.17.08-.31.16-.44.08-.13.18-.25.3-.35.31-.22.64-.38.99-.46.35-.08.73-.11,1.11-.09l.21.03h0s0-1.11,0-1.11l-.04-.32-.71-.09h-1.21s-.77.09-.77.09l-.27-.16s-.05-.1-.06-.15c0-.04-.01-.09-.01-.14v-.04c.02-.05.06-.1.11-.15.05-.05.1-.08.15-.1l.84-.09h1.24c.13.02.25.04.37.05l.23.02c-.05-.22-.11-.46-.16-.7-.06-.25-.12-.49-.2-.73l-.02-.05.17-.28s.1-.05.15-.06c.04,0,.09-.01.14-.01h.05c.08.04.15.09.19.16.03.05.06.1.08.15.09.3.16.58.22.86.05.25.1.5.14.76.17.02.33.03.5.04-.02-.01-.03-.03-.04-.05-.03-.04-.06-.08-.08-.12l-.02-.04c-.06-.29-.11-.57-.15-.85-.04-.28-.08-.56-.12-.84v-.03s0-.03,0-.03c.02-.05.05-.11.11-.16.05-.04.1-.08.15-.09h.04s.19,0,.19,0c.06.03.1.06.14.1.04.04.07.09.1.15v.04c.05.27.09.55.13.83l.14.88v.03c-.03.05-.06.1-.11.15-.03.03-.06.06-.1.07.11.02.22.06.33.1h.04s.02.05.02.05c.03.05.05.1.06.15,0,.04.01.09.01.14v.04c-.02.05-.06.1-.11.15s-.1.08-.15.1h-.04s-.22,0-.22,0l-.74-.07.03.22v1.14s-.04.23-.04.23c.3.13.59.29.86.48.3.21.59.42.86.65l.02.03s.05.09.07.14c.03.07.03.14.01.21-.02.06-.05.11-.1.16-.05.05-.1.08-.15.1h-.04s-.2,0-.2,0l-.04-.03c-.24-.21-.5-.41-.76-.58-.21-.14-.43-.27-.66-.39-.07.36-.19.71-.34,1.04-.18.38-.44.73-.77,1.04-.11.09-.23.14-.34.17-.11.03-.23.05-.35.06h-.01ZM39.16,93.16c-.27,0-.54.03-.8.09-.32.08-.62.21-.89.41-.09.08-.18.18-.24.29-.06.1-.1.21-.12.33,0,.24.04.48.13.71.09.22.21.43.37.61.11.13.24.23.38.31.13.07.27.12.42.13.1-.01.2-.03.3-.05.09-.03.17-.07.25-.13.3-.28.54-.6.7-.96.17-.36.28-.74.35-1.14l.03-.16.15.07c.3.14.58.3.84.48.25.17.51.37.75.57h.08s.02-.02.04-.03c.02-.02.03-.04.04-.05,0-.01,0-.03,0-.05-.01-.03-.02-.06-.04-.08-.26-.22-.54-.43-.83-.63-.28-.19-.59-.36-.91-.5l-.09-.04.07-.41v-1.1s-.04-.22-.04-.22v-.29s1.01.1,1.01.1h.19s.03-.02.04-.03c.02-.02.03-.03.03-.04,0-.03,0-.05,0-.08,0,0,0-.02,0-.02-.17-.06-.36-.1-.55-.11-.23-.01-.45-.03-.67-.05h-.1s-.02-.1-.02-.1c-.05-.29-.1-.57-.15-.84-.06-.27-.12-.55-.2-.82-.01-.02-.04-.06-.06-.11-.01-.02-.03-.03-.05-.04-.03,0-.05,0-.07,0-.01,0-.02,0-.03,0l-.06.11c.07.23.14.46.19.7.06.25.11.51.17.77v.27s-.5-.05-.5-.05c-.12-.01-.25-.03-.36-.05h-1.2s-.8.09-.8.09h0s0,.01-.03.03c-.02.02-.03.03-.03.04,0,.03,0,.05,0,.08,0,0,0,.02.01.03l.12.07.7-.08h1.24s.92.12.92.12l.06.53v1.13s-.03.28-.03.28l-.45-.07c-.08,0-.15,0-.23,0ZM40.93,90.72h.09s.03-.02.04-.03c.01-.01.02-.02.03-.03l-.13-.8c-.04-.28-.08-.55-.12-.82-.01-.03-.03-.05-.05-.06-.01-.01-.03-.03-.05-.04h-.08s-.03.02-.05.04c-.02.01-.02.02-.03.03.03.26.07.53.11.79s.09.54.14.81c.02.03.04.06.06.09,0,.01.02.02.03.03ZM38.52,95.79h-.03c-.13,0-.24-.03-.33-.09-.07-.04-.15-.09-.23-.14-.17-.15-.29-.31-.38-.49-.08-.17-.15-.34-.2-.53-.02-.13,0-.23.02-.32.03-.09.07-.17.12-.25l.02-.03c.18-.16.38-.28.58-.37.21-.08.42-.14.65-.18h.48c.17,0,.33.02.46.07l.1.04-.02.1c-.06.36-.16.73-.3,1.07-.14.36-.37.68-.67.95l-.03.02-.25.12ZM37.69,94.14c-.03.05-.06.11-.08.17-.02.06-.02.12-.01.2.04.15.1.31.18.46.07.15.17.28.3.4.06.03.14.08.21.12.05.03.11.05.17.05l.18-.08c.26-.25.46-.53.59-.85.12-.3.21-.6.27-.91-.09-.02-.18-.03-.28-.03h-.46c-.19.03-.39.09-.57.16-.18.07-.35.18-.5.31ZM42.15,90.85h-.2c-.05-.03-.11-.06-.15-.11-.05-.05-.08-.1-.1-.15l-.02-.09v-.99s-.04-.63-.04-.63l.13-.19s.09-.05.15-.07c.07-.03.14-.03.21-.01.06.02.12.06.16.1.05.04.08.1.1.15v.03s.04.62.04.62v1.09c-.02.06-.06.11-.11.15-.05.05-.1.08-.15.1h-.02ZM42.02,90.6h.09s.03-.02.04-.03c.02-.01.03-.03.03-.04v-1.02l-.03-.59s-.02-.02-.03-.04c-.02-.02-.04-.03-.06-.04-.01,0-.03,0-.05,0-.03,0-.05.02-.07.03l-.03.06.03.57v1.02s.03.02.05.04c.01.01.03.03.04.03Z"/>
      </g>
      <g>
        <path class="cls-1" d="M46.31,96.48l-.19-.1s-.05-.07-.05-.11v-.13s.03-.07.07-.1c.03-.03.07-.06.1-.07h.21l.1.02c.45-.03.89-.12,1.33-.26s.82-.38,1.15-.72c.07-.1.12-.2.16-.3.04-.1.05-.22.04-.34-.02-.09-.06-.17-.11-.25-.05-.07-.12-.15-.2-.22-.22-.15-.44-.28-.68-.4-.24-.11-.48-.2-.73-.24h-.86c-.25.03-.48.11-.7.23-.21.12-.44.2-.7.23-.07-.01-.13-.03-.19-.07-.05-.04-.1-.08-.15-.14-.05-.09-.08-.19-.09-.29s-.03-.21-.03-.33c.03-.45.08-.9.14-1.35.06-.45.15-.89.28-1.31.05-.05.09-.07.15-.09.05-.01.11-.01.18,0,.05.02.08.05.11.08.03.03.05.07.08.11v.14l-.15.18c-.06.39-.11.78-.17,1.18-.06.4-.09.8-.1,1.21l.03.15h.03c.19-.11.4-.21.61-.28.21-.07.43-.13.66-.16h.86c.38.06.73.17,1.07.34.33.17.65.39.94.68.09.13.15.26.19.41.03.15.05.31.03.48-.03.19-.11.36-.23.52-.12.16-.26.31-.42.45-.4.31-.84.52-1.33.64s-.97.18-1.46.21ZM48.11,89.94c-.37-.18-.75-.34-1.16-.46-.41-.13-.83-.17-1.28-.14l-.07.02-.19-.1s-.04-.07-.04-.1c0-.04,0-.08,0-.12.01-.03.03-.07.07-.1.03-.04.07-.06.1-.07l.09-.02h.71c.36.05.7.13,1.04.24.34.12.66.26.96.45.02.03.04.07.04.1,0,.04,0,.08,0,.12-.01.03-.03.07-.07.1-.03.03-.07.06-.1.07l-.09.02Z"/>
        <path class="cls-1" d="M46.28,96.61l-.25-.14c-.06-.06-.09-.13-.09-.2v-.17c.02-.05.06-.1.1-.15.05-.05.1-.08.16-.1h.04s.21,0,.21,0l.12.02c.41-.04.84-.12,1.27-.25.41-.13.78-.36,1.1-.69.05-.07.1-.17.14-.26.03-.08.04-.18.03-.29-.02-.06-.05-.13-.09-.19-.05-.07-.11-.13-.18-.19-.2-.14-.43-.27-.65-.38-.23-.11-.46-.19-.7-.23h-.84c-.22.03-.44.11-.64.22-.22.13-.47.21-.74.25h-.02s-.02,0-.02,0c-.08-.01-.16-.04-.23-.08-.07-.04-.13-.1-.18-.17-.07-.13-.1-.24-.12-.35-.02-.11-.03-.23-.03-.35.03-.46.08-.92.14-1.37.06-.46.16-.91.28-1.33l.03-.05c.06-.06.13-.1.21-.12.07-.02.14-.02.23,0h.04c.06.04.11.08.14.11.04.04.07.09.1.14v.06s.01.18.01.18l-.16.19-.17,1.14c-.06.38-.09.78-.1,1.18.16-.09.34-.17.51-.23.22-.08.45-.13.69-.17h.88c.41.06.78.18,1.12.35.34.17.67.41.97.7.12.16.19.31.22.47.04.16.05.33.04.52-.04.22-.12.42-.25.59-.12.17-.27.33-.44.47-.42.32-.88.54-1.38.66-.48.12-.98.19-1.49.21h-.04ZM46.19,96.16v.1l.15.09c.47-.02.95-.09,1.4-.2.46-.11.89-.32,1.28-.61.15-.13.28-.27.39-.42.11-.14.18-.3.21-.47,0-.15,0-.3-.03-.43-.03-.13-.09-.26-.17-.37-.27-.26-.57-.48-.89-.64-.32-.16-.67-.27-1.03-.32h-.84c-.2.03-.42.08-.62.16s-.4.16-.59.27l-.03.02h-.17l-.06-.25c0-.45.04-.86.1-1.26l.18-1.22.15-.17v-.06s-.03-.04-.04-.05c-.02-.02-.04-.03-.06-.05-.04,0-.08,0-.11,0-.02,0-.04.02-.06.03-.12.4-.21.82-.27,1.26-.06.45-.11.9-.14,1.34,0,.1,0,.2.02.3.01.09.04.18.08.26.02.02.06.06.11.09.03.02.07.04.12.05.23-.03.44-.11.63-.21.23-.13.48-.21.74-.25h.88c.28.05.54.13.79.25.24.12.47.25.7.4.1.08.17.16.23.25.06.09.1.18.13.29.02.17,0,.3-.05.42-.04.11-.1.22-.18.33-.36.37-.76.63-1.22.77-.44.14-.9.23-1.35.26l-.13-.02h-.16s-.02.02-.04.03c-.02.02-.03.03-.03.04ZM48.1,90.07l-.04-.02c-.36-.18-.75-.33-1.14-.46-.39-.12-.81-.17-1.24-.13l-.1.02-.28-.17s-.05-.1-.06-.15c0-.04-.01-.09-.01-.14v-.04c.02-.05.06-.1.11-.15.04-.05.1-.08.15-.1l.1-.02h.73c.38.05.74.13,1.08.25.35.12.68.27.98.46l.04.04s.05.1.06.15c0,.04.01.09.01.14v.04c-.02.05-.06.1-.1.15-.05.05-.1.08-.15.1l-.14.03ZM45.96,89.2c.36,0,.7.05,1.03.15.4.12.78.27,1.14.45h.04s.02-.02.04-.04c.02-.02.03-.03.03-.04,0-.03,0-.05,0-.08,0,0,0-.02-.01-.03-.28-.17-.59-.31-.9-.42-.33-.11-.67-.19-1.02-.24l-.75.02s-.02.01-.04.03c-.02.02-.03.03-.03.04,0,.03,0,.05,0,.08,0,0,0,.02.01.03l.12.06h.02c.11-.01.22-.02.32-.02Z"/>
      </g>
      <g>
        <path class="cls-1" d="M56.05,96.31c-.24-.01-.46-.05-.67-.13s-.4-.2-.57-.39c-.26-.32-.44-.68-.53-1.08-.09-.4-.16-.8-.21-1.2v-1.12l.05-.74v-.88l.02-.02v-1.42l.12-.22s.07-.05.12-.05h.14s.07.03.1.07c.03.03.06.07.07.1v.14l-.05.09v1.3l-.02.02v.88l-.05.74v1.12c.03.37.1.73.19,1.08.09.35.26.67.52.96.19.14.41.22.65.24.24.02.48.03.73.02.37-.05.71-.16,1.02-.33s.63-.34.95-.52c.03.01.07.04.1.07.03.03.06.07.07.1v.14c-.13.15-.27.28-.43.4-.16.12-.33.21-.49.29-.28.13-.57.22-.87.28-.3.06-.62.08-.96.06Z"/>
        <path class="cls-1" d="M56.31,96.44c-.09,0-.18,0-.27,0-.25-.01-.49-.06-.71-.14-.22-.08-.43-.22-.62-.42-.28-.34-.47-.72-.56-1.14-.09-.4-.16-.81-.21-1.21v-1.13s.05-.75.05-.75v-.92s.02-.02.02-.02v-1.43s.16-.25.16-.25c.06-.06.13-.09.21-.09h.17c.05.02.1.05.15.1.05.05.08.1.1.15v.04s0,.17,0,.17l-.05.09v1.32l-.02.02v.83l-.05.75v1.11c.03.35.1.7.19,1.05.09.33.25.64.49.91.15.11.35.18.56.2.23.02.47.03.71.02.34-.04.67-.15.97-.31l.99-.54.05.02c.05.02.1.05.15.1.05.05.08.1.1.15v.04s0,.18,0,.18l-.03.04c-.14.16-.29.3-.46.42-.16.11-.33.22-.5.3-.29.13-.59.23-.9.29-.23.05-.47.07-.72.07ZM54.25,90.82v.83l-.05.75v1.11c.04.38.11.78.2,1.17.09.38.26.72.51,1.03.15.16.33.28.51.35.2.07.41.11.63.12h0c.32.02.63,0,.92-.06.29-.06.58-.15.84-.28.15-.08.31-.17.47-.28.14-.1.27-.21.38-.34v-.07s-.02-.03-.03-.04c0,0-.01-.01-.02-.02l-.89.48c-.33.18-.69.29-1.07.34-.27.01-.52,0-.76-.02-.26-.02-.49-.11-.71-.26-.29-.32-.47-.66-.57-1.03-.09-.36-.16-.73-.19-1.1v-1.13s.05-.75.05-.75v-.92s.02-.02.02-.02v-1.28l.05-.09v-.08s-.02-.02-.03-.04c-.02-.02-.03-.03-.04-.03h-.11s-.01,0-.02,0l-.09.18v1.44l-.02.02Z"/>
      </g>
      <g>
        <path class="cls-1" d="M63.32,95.79c-.09-.01-.18-.04-.26-.09-.08-.05-.16-.1-.22-.17-.56-.76-.9-1.6-1.02-2.5-.12-.91-.18-1.82-.18-2.73.01-.08.03-.16.04-.23s.05-.14.11-.2c.03-.03.07-.06.12-.08.05-.02.1-.02.15,0,.03.01.07.03.1.07.03.03.06.07.07.1v.14c-.07.1-.1.22-.1.36v.41c.01.76.08,1.51.2,2.25s.4,1.43.84,2.08l.22.09c.29-.16.53-.38.73-.65.2-.27.4-.52.59-.75h.15s.07.03.1.07c.03.04.06.07.07.1v.14c-.2.3-.41.6-.65.9-.24.3-.53.53-.86.69l-.22.02ZM68.03,94.51l-.17-.16c-.15-.69-.37-1.35-.67-1.99-.3-.64-.57-1.29-.82-1.95.01-.03.03-.07.07-.1.03-.03.07-.06.1-.07h.15s.07.03.1.07c.03.04.06.07.07.1.3.64.59,1.28.87,1.92s.48,1.31.6,2c-.01.03-.03.07-.07.1-.03.03-.07.06-.1.07h-.14Z"/>
        <path class="cls-1" d="M63.31,95.92h-.01c-.11-.01-.21-.05-.31-.1-.09-.05-.18-.12-.25-.19-.58-.79-.93-1.65-1.05-2.58-.12-.91-.18-1.83-.18-2.75.01-.1.03-.18.05-.26.02-.1.07-.18.14-.26.05-.05.11-.08.17-.11.07-.03.14-.03.22-.01.07.02.12.05.17.1.05.05.08.1.1.15v.04s0,.18,0,.18l-.02.03c-.06.08-.08.18-.08.29v.41c.01.75.08,1.5.2,2.23.12.71.38,1.38.8,2l.13.05c.25-.15.46-.35.64-.59.2-.28.41-.53.6-.76l.04-.04h.25c.05.02.1.06.15.1.05.05.08.1.1.15v.04s0,.17,0,.17l-.02.03c-.2.3-.42.61-.66.91-.25.31-.56.56-.9.73h-.05s-.24.03-.24.03ZM62.01,89.9s-.03,0-.05,0c-.03.01-.05.03-.08.05-.04.04-.07.09-.08.14-.02.07-.03.15-.04.22,0,.89.06,1.8.18,2.69.12.88.45,1.71.99,2.45.05.05.11.09.19.14.06.04.13.06.2.07h.19c.31-.17.57-.38.8-.66.23-.28.44-.57.63-.86v-.07s-.02-.03-.03-.04c-.01-.01-.03-.02-.04-.03h-.07c-.18.21-.36.45-.55.7-.21.29-.47.52-.77.69l-.05.03-.31-.12-.02-.03c-.45-.66-.74-1.38-.86-2.13-.12-.74-.19-1.5-.2-2.26v-.41c0-.14.03-.28.1-.39v-.08s-.02-.03-.03-.04c-.02-.02-.04-.03-.06-.04,0,0-.01,0-.02,0ZM68.18,94.63h-.21l-.24-.21v-.04c-.16-.68-.38-1.34-.67-1.96-.29-.63-.57-1.29-.83-1.95l-.02-.04v-.04c.03-.05.06-.1.11-.15.05-.05.1-.08.15-.1h.04s.19,0,.19,0c.05.02.1.05.15.1.05.05.08.1.1.15.3.62.59,1.27.87,1.91.28.65.48,1.33.61,2.02v.03s0,.03,0,.03c-.02.05-.05.1-.1.15-.05.05-.1.08-.15.1h-.02ZM68.07,94.38h.06s.02-.02.04-.03c.01-.01.02-.02.03-.03-.12-.66-.32-1.31-.59-1.93-.27-.64-.57-1.28-.87-1.92,0-.02-.02-.04-.05-.07-.01-.01-.03-.02-.04-.03h-.1s-.03.02-.04.03c0,0-.01.02-.02.02.25.64.51,1.27.8,1.88.29.63.52,1.29.67,1.97l.11.1Z"/>
      </g>
      <g>
        <path class="cls-1" d="M74.64,92.7l-.19-.1s-.04-.07-.04-.1c0-.04,0-.08,0-.12l.19-.21c.21-.01.41-.02.61-.04.2-.01.4-.02.61-.03h1.56l.24-.02s.07.04.1.07c.03.03.06.07.07.1v.14s-.03.07-.07.1c-.03.03-.07.06-.1.07l-.17.03h-1.63c-.2.02-.39.04-.59.04s-.39.02-.58.07Z"/>
        <path class="cls-1" d="M74.62,92.83l-.28-.17s-.05-.1-.06-.15c0-.04-.01-.09-.01-.14v-.05l.26-.28,1.27-.07h1.57l.26-.02h.02c.05.03.1.06.15.11.05.05.08.1.1.15v.04s0,.18,0,.18c-.02.05-.05.1-.1.15-.05.05-.1.08-.15.1l-.19.04h-1.65c-.36.05-.79.01-1.14.1h-.05ZM74.54,92.5l.12.06c.36-.08.76-.05,1.14-.09h1.64s.15-.03.15-.03h0s.02,0,.04-.03c.01-.01.02-.03.03-.04v-.09s-.02-.03-.03-.04c-.02-.02-.03-.03-.04-.03l-.21.02h-1.67s-1.07.07-1.07.07l-.12.13s0,.04,0,.05c0,0,0,.02,0,.03Z"/>
      </g>
      <g>
        <path class="cls-1" d="M85.49,95.79c-.09-.01-.18-.04-.26-.09-.08-.05-.16-.1-.22-.17-.56-.76-.9-1.6-1.02-2.5-.12-.91-.18-1.82-.18-2.73.01-.08.03-.16.04-.23s.05-.14.11-.2c.03-.03.07-.06.12-.08.05-.02.1-.02.15,0,.03.01.07.03.1.07.03.03.06.07.07.1v.14c-.07.1-.1.22-.1.36v.41c.01.76.08,1.51.2,2.25s.4,1.43.84,2.08l.22.09c.29-.16.53-.38.73-.65.2-.27.4-.52.59-.75h.15s.07.03.1.07c.03.04.06.07.07.1v.14c-.2.3-.41.6-.65.9-.24.3-.53.53-.86.69l-.22.02ZM90.2,94.51l-.17-.16c-.15-.69-.37-1.35-.67-1.99-.3-.64-.57-1.29-.82-1.95.01-.03.03-.07.07-.1.03-.03.07-.06.1-.07h.15s.07.03.1.07c.03.04.06.07.07.1.3.64.59,1.28.87,1.92s.48,1.31.6,2c-.01.03-.03.07-.07.1-.03.03-.07.06-.1.07h-.14Z"/>
        <path class="cls-1" d="M85.49,95.92h-.01c-.11-.01-.21-.05-.31-.1-.09-.05-.18-.12-.25-.19-.58-.79-.93-1.65-1.05-2.58-.12-.91-.18-1.83-.18-2.75.01-.1.03-.18.05-.26.02-.1.07-.18.14-.26.05-.05.11-.08.17-.11.07-.03.14-.03.22-.01.07.02.12.05.17.1.05.05.08.1.1.15v.04s0,.18,0,.18l-.02.03c-.06.08-.08.18-.08.29v.41c.01.75.08,1.5.2,2.23.12.71.38,1.38.8,2l.13.05c.25-.15.46-.35.64-.59.2-.28.41-.53.6-.76l.04-.04h.25c.05.02.1.06.15.1.05.05.08.1.1.15v.04s0,.17,0,.17l-.02.03c-.2.3-.42.61-.66.91-.25.31-.56.56-.9.73h-.05s-.24.03-.24.03ZM84.19,89.9s-.03,0-.05,0c-.03.01-.05.03-.08.05-.04.04-.07.09-.08.14-.02.07-.03.15-.04.22,0,.89.06,1.8.18,2.69.12.88.45,1.71.99,2.45.05.05.11.09.19.14.06.04.13.06.2.07h.19c.31-.17.57-.38.8-.66.23-.28.44-.57.63-.86v-.07s-.02-.03-.03-.04c-.01-.01-.03-.02-.04-.03h-.07c-.18.21-.36.45-.55.7-.21.29-.47.52-.77.69l-.05.03-.31-.12-.02-.03c-.45-.66-.74-1.38-.86-2.13-.12-.74-.19-1.5-.2-2.26v-.41c0-.14.03-.28.1-.39v-.08s-.02-.03-.03-.04c-.02-.02-.04-.03-.06-.04,0,0-.01,0-.02,0ZM90.36,94.63h-.21l-.24-.21v-.04c-.16-.68-.38-1.34-.67-1.96-.29-.63-.57-1.29-.83-1.95l-.02-.04v-.04c.03-.05.06-.1.11-.15.05-.05.1-.08.15-.1h.04s.19,0,.19,0c.05.02.1.05.15.1.05.05.08.1.1.15.3.62.59,1.27.87,1.91.28.65.48,1.33.61,2.02v.03s0,.03,0,.03c-.02.05-.05.1-.1.15-.05.05-.1.08-.15.1h-.02ZM90.25,94.38h.06s.02-.02.04-.03c.01-.01.02-.02.03-.03-.12-.66-.32-1.31-.59-1.93-.27-.64-.57-1.28-.87-1.92,0-.02-.02-.04-.05-.07-.01-.01-.03-.02-.04-.03h-.1s-.03.02-.04.03c0,0-.01.02-.02.02.25.64.51,1.27.8,1.88.29.63.52,1.29.67,1.97l.11.1Z"/>
      </g>
      <g>
        <path class="cls-1" d="M95.03,96.48l-.19-.1s-.05-.07-.05-.11v-.13s.03-.07.07-.1c.03-.03.07-.06.1-.07h.21l.1.02c.45-.03.89-.12,1.33-.26s.82-.38,1.15-.72c.07-.1.12-.2.16-.3.04-.1.05-.22.04-.34-.02-.09-.06-.17-.11-.25-.05-.07-.12-.15-.2-.22-.22-.15-.44-.28-.68-.4-.24-.11-.48-.2-.73-.24h-.86c-.25.03-.48.11-.7.23-.21.12-.44.2-.7.23-.07-.01-.13-.03-.19-.07-.05-.04-.1-.08-.15-.14-.05-.09-.08-.19-.09-.29s-.03-.21-.03-.33c.03-.45.08-.9.14-1.35.06-.45.15-.89.28-1.31.05-.05.09-.07.15-.09.05-.01.11-.01.18,0,.05.02.08.05.11.08.03.03.05.07.08.11v.14l-.15.18c-.06.39-.11.78-.17,1.18-.06.4-.09.8-.1,1.21l.03.15h.03c.19-.11.4-.21.61-.28.21-.07.43-.13.66-.16h.86c.38.06.73.17,1.07.34.33.17.65.39.94.68.09.13.15.26.19.41.03.15.05.31.03.48-.03.19-.11.36-.23.52-.12.16-.26.31-.42.45-.4.31-.84.52-1.33.64s-.97.18-1.46.21ZM96.84,89.94c-.37-.18-.75-.34-1.16-.46-.41-.13-.83-.17-1.28-.14l-.07.02-.19-.1s-.04-.07-.04-.1c0-.04,0-.08,0-.12.01-.03.03-.07.07-.1.03-.04.07-.06.1-.07l.09-.02h.71c.36.05.7.13,1.04.24.34.12.66.26.96.45.02.03.04.07.04.1,0,.04,0,.08,0,.12-.01.03-.03.07-.07.1-.03.03-.07.06-.1.07l-.09.02Z"/>
        <path class="cls-1" d="M95,96.61l-.25-.14c-.06-.06-.09-.13-.09-.2v-.17c.02-.05.06-.1.1-.15.05-.05.1-.08.16-.1h.04s.21,0,.21,0l.12.02c.41-.04.84-.12,1.27-.25.41-.13.78-.36,1.1-.69.05-.07.1-.17.14-.26.03-.08.04-.18.03-.29-.02-.06-.05-.13-.09-.19-.05-.07-.11-.13-.18-.19-.2-.14-.43-.27-.65-.38-.23-.11-.46-.19-.7-.23h-.84c-.22.03-.44.11-.64.22-.22.13-.47.21-.74.25h-.02s-.02,0-.02,0c-.08-.01-.16-.04-.23-.08-.07-.04-.13-.1-.18-.17-.07-.13-.1-.24-.12-.35-.02-.11-.03-.23-.03-.35.03-.46.08-.92.14-1.37.06-.46.16-.91.28-1.33l.03-.05c.06-.06.13-.1.21-.12.07-.02.14-.02.23,0h.04c.06.04.11.08.14.11.04.04.07.09.1.14v.06s.01.18.01.18l-.16.19-.17,1.14c-.06.38-.09.78-.1,1.18.16-.09.34-.17.51-.23.22-.08.45-.13.69-.17h.88c.41.06.78.18,1.12.35.34.17.67.41.97.7.12.16.19.31.22.47.04.16.05.33.04.52-.04.22-.12.42-.25.59-.12.17-.27.33-.44.47-.42.32-.88.54-1.38.66-.48.12-.98.19-1.49.21h-.04ZM94.92,96.16v.1l.15.09c.47-.02.95-.09,1.4-.2.46-.11.89-.32,1.28-.61.15-.13.28-.27.39-.42.11-.14.18-.3.21-.47,0-.15,0-.3-.03-.43-.03-.13-.09-.26-.17-.37-.27-.26-.57-.48-.89-.64-.32-.16-.67-.27-1.03-.32h-.84c-.2.03-.42.08-.62.16s-.4.16-.59.27l-.03.02h-.17l-.06-.25c0-.45.04-.86.1-1.26l.18-1.22.15-.17v-.06s-.03-.04-.04-.05c-.02-.02-.04-.03-.06-.05-.05,0-.08,0-.11,0-.02,0-.04.02-.06.03-.12.4-.21.82-.27,1.26-.06.45-.11.9-.14,1.34,0,.1,0,.2.02.3.01.09.04.18.08.26.02.02.06.06.11.09.03.02.07.04.12.05.23-.03.44-.11.63-.21.23-.13.48-.21.74-.25h.88c.28.05.54.13.79.25.24.12.47.25.7.4.1.08.17.16.23.25.06.09.1.18.13.29.02.17,0,.3-.05.42-.04.11-.1.22-.18.33-.36.37-.76.63-1.22.77-.44.14-.9.23-1.35.26l-.13-.02h-.16s-.02.02-.04.03c-.02.02-.03.03-.03.04ZM96.82,90.07l-.04-.02c-.36-.18-.75-.33-1.14-.46-.39-.12-.81-.17-1.24-.13l-.1.02-.28-.17s-.05-.1-.06-.15c0-.04-.01-.09-.01-.14v-.04c.02-.05.06-.1.11-.15.04-.05.1-.08.15-.1l.1-.02h.73c.38.05.74.13,1.08.25.35.12.68.27.98.46l.04.04s.05.1.06.15c0,.04.01.09.01.14v.04c-.02.05-.06.1-.1.15-.05.05-.1.08-.15.1l-.14.03ZM94.69,89.2c.36,0,.7.05,1.03.15.4.12.78.27,1.14.45h.04s.02-.02.04-.04c.02-.02.03-.03.03-.04,0-.03,0-.05,0-.08,0,0,0-.02-.01-.03-.28-.17-.59-.31-.9-.42-.33-.11-.67-.19-1.02-.24l-.75.02s-.02.01-.04.03c-.02.02-.03.03-.03.04,0,.03,0,.05,0,.08,0,0,0,.02.01.03l.12.06h.02c.11-.01.22-.02.32-.02Z"/>
      </g>
      <g>
        <path class="cls-1" d="M104.07,96.7l-.19-.1s-.04-.07-.04-.1c0-.03,0-.07,0-.12.02-.05.05-.09.09-.12.03-.03.07-.06.12-.09.23-.02.44-.09.65-.2.2-.11.38-.26.54-.46.18-.26.34-.54.48-.82s.24-.59.29-.91h-.03c-.06.16-.15.32-.27.46-.12.15-.26.27-.42.36-.1.03-.21.06-.32.08-.11.02-.22.03-.34.03-.25-.01-.48-.08-.69-.19-.21-.12-.4-.26-.57-.45-.14-.13-.24-.27-.3-.42-.06-.16-.08-.32-.06-.51.02-.16.08-.31.17-.44s.2-.26.33-.39c.23-.23.49-.39.77-.47.29-.09.6-.11.95-.08.1.01.2.04.28.08.09.04.17.08.27.11v-.16c-.01-.18-.03-.37-.06-.55s-.06-.37-.09-.55h-3.33l-.62.03s-.09-.02-.15-.03c-.05-.01-.1-.03-.15-.07-.02-.04-.04-.08-.06-.12-.02-.05-.02-.1,0-.14.01-.03.03-.07.07-.1.03-.04.07-.06.1-.07h.14c.07.02.15.03.23.03h.25l.19-.03h3.16v-.05c-.06-.17-.13-.34-.21-.51-.09-.17-.16-.34-.22-.51l.07-.12s.07-.04.12-.06.09-.02.14,0c.06.02.11.06.15.11.04.05.08.1.11.15l.4.98.02.02h.9c.19.03.38.05.58.06.2,0,.37.05.53.13.02.03.04.07.04.11,0,.04,0,.08,0,.12-.01.03-.03.07-.07.1-.03.03-.07.06-.1.07h-.29l-.7-.09h-.79v.05c.03.17.07.34.09.52s.05.35.06.53v.69c.07.09.12.19.15.3.03.11.05.22.08.34v.71c-.07.42-.2.83-.4,1.23-.2.39-.46.75-.78,1.07-.18.16-.38.29-.58.38s-.42.16-.65.19ZM105.12,94.11c.13-.09.22-.2.28-.34s.13-.26.2-.39c.03-.11.07-.23.11-.35.04-.12.06-.25.06-.39-.15-.18-.32-.3-.52-.34-.2-.05-.42-.06-.65-.04-.17.04-.33.1-.47.19s-.28.21-.4.34c-.07.09-.13.19-.17.28s-.06.2-.05.32c.02.07.06.13.11.19.05.06.1.11.15.17.15.16.31.28.49.35.18.08.38.11.59.09l.28-.1Z"/>
        <path class="cls-1" d="M104.05,96.83l-.27-.16s-.05-.1-.06-.15c0-.04-.01-.08-.01-.14v-.06c.04-.06.08-.11.12-.15.05-.04.1-.08.15-.11h.04c.21-.03.41-.09.6-.2.19-.1.36-.24.51-.43.17-.25.33-.52.47-.8.03-.06.05-.11.08-.17-.1.1-.21.18-.33.25-.14.05-.25.08-.36.09-.11.02-.23.03-.35.03-.28-.01-.53-.08-.75-.21-.22-.12-.42-.28-.6-.47-.14-.13-.26-.29-.33-.46-.07-.17-.09-.37-.07-.57.03-.18.09-.35.19-.49.09-.13.21-.27.34-.4.24-.24.52-.41.83-.51.3-.09.64-.12,1-.08.12.01.23.04.32.09.03.01.06.03.09.04-.01-.16-.03-.33-.06-.5-.02-.15-.05-.3-.08-.45h-3.23l-.63.04-.16-.04c-.07-.02-.13-.05-.19-.09l-.03-.03s-.05-.09-.07-.15c-.03-.07-.03-.14-.01-.21.02-.06.05-.11.1-.16.04-.05.1-.08.15-.1h.04s.18,0,.18,0c.05.02.12.03.19.03h.25l.17-.03h3.02c-.05-.13-.1-.25-.17-.38-.09-.17-.16-.35-.22-.53l-.02-.05.14-.21s.09-.05.15-.07c.07-.03.14-.03.21-.01.09.04.16.09.21.16l.13.18.37.92h.82c.21.04.39.05.58.06.21,0,.41.05.59.14l.05.04s.05.1.06.16c0,.04,0,.09,0,.14v.04c-.02.05-.06.11-.11.15-.05.05-.1.08-.15.1h-.04s-.29,0-.29,0l-.71-.09h-.64c.03.13.05.28.08.42.03.17.05.36.06.55v.66c.07.1.11.2.14.31.03.11.06.22.08.34v.73c-.07.46-.21.88-.42,1.28-.21.4-.48.77-.81,1.1-.2.17-.41.31-.62.4-.22.1-.45.16-.69.2h-.04ZM103.97,96.51l.12.07c.2-.03.4-.09.58-.17.19-.09.38-.21.55-.36.3-.3.56-.65.75-1.03.19-.38.33-.78.39-1.19v-.69c-.02-.09-.05-.2-.08-.3-.02-.09-.06-.18-.12-.26l-.02-.03v-.73c-.01-.17-.03-.35-.06-.51-.03-.17-.06-.34-.09-.51v-.2s.91,0,.91,0l.71.09h.25s.02-.02.04-.03c.02-.02.03-.03.03-.04,0-.03,0-.06,0-.08,0,0,0-.02,0-.03-.13-.06-.29-.09-.45-.1-.2,0-.4-.03-.59-.06h-.93s-.08-.09-.08-.09l-.39-.96-.1-.13s-.06-.06-.1-.07c0,0-.02,0-.05.01-.03.01-.05.02-.07.03l-.02.04c.05.15.12.3.19.44.09.17.16.35.22.53v.04s0,.18,0,.18h-3.28l-.17.03h-.27c-.09,0-.18,0-.25-.03h-.09s-.03.02-.04.03c-.03.03-.04.05-.04.05,0,.01,0,.04,0,.06.01.03.02.06.04.08.03.02.05.03.08.03l.13.03.6-.03h3.44l.02.1c.03.19.07.37.1.55.03.19.05.38.06.56v.34l-.17-.06c-.1-.04-.19-.07-.28-.12-.07-.03-.15-.06-.24-.07-.32-.03-.63,0-.9.07-.27.08-.51.23-.72.44-.12.12-.23.25-.31.37-.08.12-.13.24-.15.38-.02.16,0,.31.05.44.06.14.15.26.27.38.17.18.35.32.54.43.19.1.4.16.63.17.1,0,.21,0,.31-.02.1-.02.2-.04.3-.07.12-.07.25-.18.36-.32.11-.14.19-.28.25-.43l.03-.08h.27l-.03.15c-.06.33-.16.65-.3.94-.14.29-.3.57-.49.84-.18.21-.37.38-.59.5-.21.11-.43.18-.67.21-.03.02-.05.03-.07.05-.02.02-.03.04-.05.06,0,.02,0,.05,0,.07,0,.01,0,.02.01.03ZM104.76,94.34c-.2,0-.39-.04-.56-.11-.19-.08-.37-.21-.53-.38-.05-.06-.1-.12-.15-.17-.06-.07-.11-.15-.14-.23-.02-.17,0-.29.06-.41.05-.1.11-.21.19-.31.14-.16.29-.28.44-.38.15-.1.33-.17.52-.21.26-.03.49-.01.7.04.23.05.43.18.59.39l.03.04v.04c0,.15-.02.29-.07.43-.04.12-.08.24-.11.35-.08.15-.14.28-.21.41-.07.15-.18.28-.32.38l-.03.02-.31.11s-.06,0-.09,0ZM104.83,92.38c-.07,0-.14,0-.21,0-.15.03-.29.09-.42.17-.13.08-.26.19-.38.32-.06.08-.11.16-.15.25-.04.08-.05.16-.04.25.01.02.04.07.08.12.05.06.1.12.15.18.13.14.28.25.44.32.15.06.33.1.52.09l.24-.09c.1-.08.18-.17.23-.28.06-.13.13-.26.2-.39.02-.09.06-.21.1-.33.03-.09.05-.2.05-.3-.12-.14-.26-.23-.43-.27-.13-.03-.26-.04-.4-.04Z"/>
      </g>
      <g>
        <path class="cls-1" d="M113.66,95.69c-.44-.01-.86-.06-1.27-.14-.41-.08-.79-.26-1.15-.53-.1-.13-.17-.28-.21-.45-.03-.17-.05-.34-.05-.51.05-.37.17-.7.38-1,.21-.3.46-.58.74-.84l.55-.45v-.05c-.15-.45-.28-.9-.39-1.36-.11-.46-.21-.92-.3-1.38l.1-.19s.07-.05.11-.05h.13s.07.03.1.07c.03.03.06.07.07.1.06.42.14.85.25,1.28.11.43.22.85.34,1.26h.03c.4-.26.81-.48,1.24-.66.42-.18.87-.29,1.34-.33.03.01.07.04.11.07.04.04.06.07.07.11v.14s-.04.07-.07.1c-.04.04-.07.06-.11.07-.7.12-1.36.35-1.98.71-.62.36-1.18.81-1.67,1.33-.16.18-.29.38-.4.59-.1.21-.16.44-.16.7.01.08.03.16.06.24.03.08.08.15.15.22.34.2.71.32,1.11.37s.79.07,1.2.07c.39-.03.77-.09,1.15-.16.38-.07.75-.17,1.13-.29.03.01.07.04.1.07.03.03.06.07.07.11v.14s-.06.09-.1.13-.09.07-.14.09c-.42.13-.84.22-1.27.29-.42.07-.85.11-1.29.12Z"/>
        <path class="cls-1" d="M113.66,95.81h0c-.44-.01-.88-.06-1.29-.14-.43-.08-.83-.27-1.2-.56-.14-.17-.21-.34-.25-.52-.04-.18-.05-.36-.05-.53.05-.4.19-.76.41-1.07.21-.3.47-.6.76-.86l.5-.41c-.14-.43-.27-.88-.38-1.33-.11-.47-.21-.93-.3-1.39v-.04s.14-.26.14-.26c.07-.07.15-.09.2-.09h.17c.05.02.1.06.15.1.05.05.08.1.1.15.06.44.15.87.25,1.29.1.38.19.75.29,1.11.37-.23.75-.44,1.15-.6.43-.18.9-.29,1.38-.34h.02s.02,0,.02,0c.05.02.11.05.16.1.05.05.09.11.1.16v.04s0,.18,0,.18c-.02.05-.05.11-.11.15-.05.05-.1.08-.15.1-.7.12-1.35.35-1.96.71-.61.35-1.16.79-1.64,1.31-.15.17-.28.36-.38.56-.09.19-.14.41-.14.64,0,.06.03.13.05.2.02.06.06.11.11.17.32.19.68.3,1.05.35.39.04.78.07,1.18.07.37-.03.75-.09,1.13-.16.37-.07.75-.17,1.11-.29h.04s.04,0,.04,0c.05.02.1.05.15.1s.08.11.1.17v.03s0,.19,0,.19c-.03.06-.07.12-.13.17-.05.05-.11.08-.16.11-.45.14-.88.24-1.3.3-.43.07-.87.11-1.31.12h0ZM112.11,88.99c.09.43.18.88.29,1.33.11.46.24.91.38,1.35v.04s0,.11,0,.11l-.6.48c-.27.25-.52.53-.72.82-.2.28-.32.6-.36.94,0,.15.02.31.05.47.03.15.09.28.18.4.31.24.68.41,1.07.49.4.08.82.12,1.25.14.43-.01.86-.05,1.27-.12.42-.07.84-.16,1.25-.29.02-.01.05-.04.09-.07.03-.02.04-.04.06-.07v-.08s-.02-.03-.03-.04c0,0-.02-.02-.03-.02-.36.12-.73.21-1.09.28-.38.08-.78.13-1.17.17h-.01c-.41,0-.82-.02-1.21-.07-.41-.05-.8-.18-1.16-.39l-.03-.02c-.08-.08-.14-.17-.17-.27-.03-.09-.05-.18-.07-.26,0-.29.06-.54.17-.77.11-.22.25-.43.41-.62.5-.54,1.07-.99,1.7-1.36.63-.37,1.31-.61,2.02-.73,0,0,.02-.02.04-.04.02-.02.03-.03.03-.04v-.08s-.02-.03-.04-.05c-.02-.02-.03-.03-.04-.03-.44.04-.87.15-1.27.31-.42.18-.83.39-1.22.65l-.03.02h-.17l-.03-.09c-.11-.41-.23-.83-.34-1.26-.11-.43-.19-.86-.25-1.29,0,.01,0,0-.03-.03-.02-.02-.03-.03-.04-.03h-.1l-.08.14Z"/>
      </g>
    </g>
  </g>
</svg>