<?xml version="1.0" encoding="UTF-8"?>
<svg id="_レイヤー_2" data-name="レイヤー_2" xmlns="http://www.w3.org/2000/svg" viewBox="0 0 703.24 64.49">
  <defs>
    <style>
      .cls-1 {
        fill: #f0ec9b;
      }

      .cls-2 {
        fill: #4e4d4d;
      }
    </style>
  </defs>
  <g id="_レイヤー_1-2" data-name="レイヤー_1">
    <g>
      <path class="cls-2" d="M.46,10.67c28.53,22.88,69.11,24.5,104.03,22.65,19.19-1.02,38.28-3.47,57.26-6.45,9.25-1.45,18.5-2.81,27.55-5.24,13.4-3.59,26.26-6.11,40.16-4,12.94,1.96,25.57,5.73,38.31,8.65s25.04,5.44,37.67,7.57c24.49,4.12,49.31,6.57,74.16,6.14s49.13-3.71,72.9-10.08c6.71-1.8,13.48-4.81,20.47-4.81s13.54,1.11,20.22,2.27c12.4,2.17,24.81,3.79,37.4,4.34,51.99,2.28,103.32-10.1,153.07-23.83,6.21-1.71,12.41-3.46,18.62-5.21,1.67-.47.96-3.08-.72-2.61-49.74,14.02-100.39,28.06-152.4,29.14-12.61.26-25.25-.26-37.77-1.75s-25.49-5.07-38.41-5.07c-6.33,0-11.93,2.33-17.97,4.02s-12.36,3.25-18.61,4.57c-12.26,2.58-24.68,4.36-37.17,5.36-50.37,4.01-100.55-4.9-149.24-17.12-12.19-3.06-24.87-6.07-37.52-5.05-11.58.93-22.36,5.23-33.72,7.17-18.38,3.14-36.82,6.03-55.39,7.84s-38.9,2.72-58.29,1.03c-17.9-1.57-36.19-5.35-51.99-14.24-3.76-2.11-7.34-4.51-10.7-7.21-1.35-1.08-3.27.82-1.91,1.91H.46Z"/>
      <g>
        <path class="cls-1" d="M642.86,18.9c-.79,4.26-5.71,6.8-9.79,9.28-6.7,3.36-10.51,12.81-.63,13.99,9.61-.82,6.49-9.82,1.12-14.08"/>
        <path class="cls-2" d="M641.56,18.54c-1.02,4.85-6.92,6.85-10.58,9.3-2.93,1.97-5.63,5.18-5.88,8.84-.27,3.98,3.1,6.22,6.66,6.76,3.76.56,7.89-2.01,8.22-5.92s-2.5-8-5.45-10.39c-1.34-1.09-3.27.82-1.91,1.91,2.19,1.77,4.3,4.38,4.65,7.28.14,1.14-.09,2.32-.97,3.13-1.08.99-3.02,1.55-4.44,1.27-1.34-.26-2.84-.73-3.61-1.94-.6-.94-.52-2.09-.22-3.12.89-3.04,3.44-4.97,6.04-6.49,3.95-2.31,9.09-5.02,10.12-9.91.36-1.7-2.25-2.43-2.61-.72h0Z"/>
      </g>
      <g>
        <path class="cls-1" d="M93.7,32.99c-.79,4.26-5.71,6.8-9.79,9.28-6.7,3.36-10.51,12.81-.63,13.99,9.61-.82,6.49-9.82,1.12-14.08"/>
        <path class="cls-2" d="M92.39,32.63c-1.02,4.85-6.92,6.85-10.58,9.3-2.93,1.97-5.63,5.18-5.88,8.84-.27,3.98,3.1,6.22,6.66,6.76,3.76.56,7.89-2.01,8.22-5.92s-2.5-8-5.45-10.39c-1.34-1.09-3.27.82-1.91,1.91,2.19,1.77,4.3,4.38,4.65,7.28.14,1.14-.09,2.32-.97,3.13-1.08.99-3.02,1.55-4.44,1.27-1.34-.26-2.84-.73-3.61-1.94-.6-.94-.52-2.09-.22-3.12.89-3.04,3.44-4.97,6.04-6.49,3.95-2.31,9.09-5.02,10.12-9.91.36-1.7-2.25-2.43-2.61-.72h0Z"/>
      </g>
      <g>
        <path class="cls-1" d="M182.43,22.89c-.79,4.26-5.71,6.8-9.79,9.28-6.7,3.36-10.51,12.81-.63,13.99,9.61-.82,6.49-9.82,1.12-14.08"/>
        <path class="cls-2" d="M181.13,22.53c-1.02,4.85-6.92,6.85-10.58,9.3-2.93,1.97-5.63,5.18-5.88,8.84-.27,3.98,3.1,6.22,6.66,6.76,3.76.56,7.89-2.01,8.22-5.92s-2.5-8-5.45-10.39c-1.34-1.09-3.27.82-1.91,1.91,2.19,1.77,4.3,4.38,4.65,7.28.14,1.14-.09,2.32-.97,3.13-1.08.99-3.02,1.55-4.44,1.27-1.34-.26-2.84-.73-3.61-1.94-.6-.94-.52-2.09-.22-3.12.89-3.04,3.44-4.97,6.04-6.49,3.95-2.31,9.09-5.02,10.12-9.91.36-1.7-2.25-2.43-2.61-.72h0Z"/>
      </g>
      <g>
        <path class="cls-1" d="M274.84,26.84c-.79,4.26-5.71,6.8-9.79,9.28-6.7,3.36-10.51,12.81-.63,13.99,9.61-.82,6.49-9.82,1.12-14.08"/>
        <path class="cls-2" d="M273.54,26.48c-1.02,4.85-6.92,6.85-10.58,9.3-2.93,1.97-5.63,5.18-5.88,8.84-.27,3.98,3.1,6.22,6.66,6.76,3.76.56,7.89-2.01,8.22-5.92s-2.5-8-5.45-10.39c-1.34-1.09-3.27.82-1.91,1.91,2.19,1.77,4.3,4.38,4.65,7.28.14,1.14-.09,2.32-.97,3.13-1.08.99-3.02,1.55-4.44,1.27-1.34-.26-2.84-.73-3.61-1.94-.6-.94-.52-2.09-.22-3.12.89-3.04,3.44-4.97,6.04-6.49,3.95-2.31,9.09-5.02,10.12-9.91.36-1.7-2.25-2.43-2.61-.72h0Z"/>
      </g>
      <g>
        <path class="cls-1" d="M374.78,40.12c-.73,4.22-5.25,6.73-9,9.19-6,3.21-9.82,12.62-.58,13.85,9.03-.88,5.78-9.88,1.03-13.94"/>
        <path class="cls-2" d="M373.48,39.76c-.92,4.7-6.22,6.7-9.7,9.21-2.81,2.02-5.25,5.25-5.46,8.81-.22,3.78,2.95,6.35,6.52,6.68s7.22-2.36,7.42-6.08-2.3-7.71-5.07-10.13c-1.31-1.14-3.23.77-1.91,1.91,2.05,1.79,3.91,4.38,4.25,7.15s-1.87,4.75-4.59,4.42-4.46-2.29-3.71-5.03c.8-2.92,3.06-4.88,5.51-6.43,3.75-2.36,8.42-5.1,9.35-9.82.33-1.7-2.27-2.43-2.61-.72h0Z"/>
      </g>
      <g>
        <path class="cls-1" d="M466.66,25.51c-.79,4.26-5.71,6.8-9.79,9.28-6.7,3.36-10.51,12.81-.63,13.99,10.17.07,5.39-13.13,1.12-14.08"/>
        <path class="cls-2" d="M465.35,25.15c-1.12,5.31-7.8,7.07-11.58,10.03-2.88,2.25-5.63,6.13-4.74,9.97.98,4.24,6.61,5.82,10.32,4.54s4.69-4.74,4.12-8.21c-.5-3.04-2.46-7.27-5.76-8.09-1.69-.42-2.41,2.19-.72,2.61.7.17,1.44.85,2.05,1.69.74,1.04,1.27,2.23,1.6,3.46.57,2.18.48,4.93-1.91,5.89s-7,.04-7.15-3.18,2.66-5.96,5.08-7.42c4.25-2.56,10.16-5.19,11.3-10.58.36-1.7-2.25-2.43-2.61-.72h0Z"/>
      </g>
      <g>
        <path class="cls-1" d="M561.1,30.4c-.79,4.26-5.71,6.8-9.79,9.28-6.7,3.36-10.51,12.81-.63,13.99,9.61-.82,6.49-9.82,1.12-14.08"/>
        <path class="cls-2" d="M559.79,30.04c-1.02,4.85-6.92,6.85-10.58,9.3-2.93,1.97-5.63,5.18-5.88,8.84-.27,3.98,3.1,6.22,6.66,6.76,3.76.56,7.89-2.01,8.22-5.92s-2.5-8-5.45-10.39c-1.34-1.09-3.27.82-1.91,1.91,2.19,1.77,4.3,4.38,4.65,7.28.14,1.14-.09,2.32-.97,3.13-1.08.99-3.02,1.55-4.44,1.27-1.34-.26-2.84-.73-3.61-1.94-.6-.94-.52-2.09-.22-3.12.89-3.04,3.44-4.97,6.04-6.49,3.95-2.31,9.09-5.02,10.12-9.91.36-1.7-2.25-2.43-2.61-.72h0Z"/>
      </g>
    </g>
  </g>
</svg>